<svg xmlns="http://www.w3.org/2000/svg" xmlns:xlink="http://www.w3.org/1999/xlink" width="500" zoomAndPan="magnify" viewBox="0 0 375 374.999991" height="500" preserveAspectRatio="xMidYMid meet" version="1.0"><defs><clipPath id="123ddbd120"><path d="M 96 100 L 177 100 L 177 181 L 96 181 Z M 96 100 " clip-rule="nonzero"/></clipPath><clipPath id="110c9ef537"><path d="M 85.078125 154.972656 L 150.308594 89.742188 L 187.429688 126.867188 L 122.199219 192.097656 Z M 85.078125 154.972656 " clip-rule="nonzero"/></clipPath><clipPath id="24a2d945b0"><path d="M 85.078125 154.972656 L 150.308594 89.742188 L 187.429688 126.867188 L 122.199219 192.097656 Z M 85.078125 154.972656 " clip-rule="nonzero"/></clipPath><clipPath id="0f4921440b"><path d="M 85.078125 154.972656 L 150.308594 89.742188 L 187.429688 126.867188 L 122.199219 192.097656 Z M 85.078125 154.972656 " clip-rule="nonzero"/></clipPath><clipPath id="11aa024123"><path d="M 198 100 L 279 100 L 279 181 L 198 181 Z M 198 100 " clip-rule="nonzero"/></clipPath><clipPath id="1c02a3cbe1"><path d="M 252.9375 191.949219 L 187.707031 126.71875 L 224.828125 89.59375 L 290.0625 154.824219 Z M 252.9375 191.949219 " clip-rule="nonzero"/></clipPath><clipPath id="55314de9d1"><path d="M 252.9375 191.949219 L 187.707031 126.71875 L 224.828125 89.59375 L 290.0625 154.824219 Z M 252.9375 191.949219 " clip-rule="nonzero"/></clipPath><clipPath id="c47f1a9a9e"><path d="M 252.9375 191.949219 L 187.707031 126.71875 L 224.828125 89.59375 L 290.0625 154.824219 Z M 252.9375 191.949219 " clip-rule="nonzero"/></clipPath><clipPath id="9944a2978e"><path d="M 198 194 L 279 194 L 279 275 L 198 275 Z M 198 194 " clip-rule="nonzero"/></clipPath><clipPath id="2b0630e27f"><path d="M 289.910156 220.023438 L 224.679688 285.253906 L 187.558594 248.128906 L 252.789062 182.898438 Z M 289.910156 220.023438 " clip-rule="nonzero"/></clipPath><clipPath id="87b01c57ce"><path d="M 289.910156 220.023438 L 224.679688 285.253906 L 187.558594 248.128906 L 252.789062 182.898438 Z M 289.910156 220.023438 " clip-rule="nonzero"/></clipPath><clipPath id="43fdb38f75"><path d="M 289.910156 220.023438 L 224.679688 285.253906 L 187.558594 248.128906 L 252.789062 182.898438 Z M 289.910156 220.023438 " clip-rule="nonzero"/></clipPath><clipPath id="835865c0c5"><path d="M 96 194 L 177 194 L 177 275 L 96 275 Z M 96 194 " clip-rule="nonzero"/></clipPath><clipPath id="29faa8ec1e"><path d="M 122.050781 183.046875 L 187.28125 248.277344 L 150.160156 285.402344 L 84.929688 220.171875 Z M 122.050781 183.046875 " clip-rule="nonzero"/></clipPath><clipPath id="2e63159d3e"><path d="M 122.050781 183.046875 L 187.28125 248.277344 L 150.160156 285.402344 L 84.929688 220.171875 Z M 122.050781 183.046875 " clip-rule="nonzero"/></clipPath><clipPath id="94229848b3"><path d="M 122.050781 183.046875 L 187.28125 248.277344 L 150.160156 285.402344 L 84.929688 220.171875 Z M 122.050781 183.046875 " clip-rule="nonzero"/></clipPath></defs><rect x="-37.5" width="450" fill="#ffffff" y="-37.499999" height="449.999989" fill-opacity="1"/><rect x="-37.5" width="450" fill="#ffffff" y="-37.499999" height="449.999989" fill-opacity="1"/><g clip-path="url(#123ddbd120)"><g clip-path="url(#110c9ef537)"><g clip-path="url(#24a2d945b0)"><g clip-path="url(#0f4921440b)"><path fill="#000000" d="M 160.648438 106.222656 L 159.558594 107.308594 L 156.152344 103.902344 C 154.265625 102.015625 151.207031 102.003906 149.335938 103.875 L 147.742188 105.46875 L 144.714844 102.441406 C 142.761719 100.488281 139.59375 100.476562 137.65625 102.417969 L 133.691406 106.382812 C 131.753906 108.320312 131.765625 111.488281 133.71875 113.441406 L 143.570312 123.296875 L 118.632812 148.238281 L 108.777344 138.382812 C 106.824219 136.429688 103.65625 136.417969 101.714844 138.359375 L 97.75 142.324219 C 95.8125 144.261719 95.824219 147.429688 97.777344 149.382812 L 100.804688 152.410156 L 99.210938 154.003906 C 97.339844 155.875 97.351562 158.933594 99.234375 160.816406 L 102.644531 164.226562 L 101.554688 165.3125 C 99.863281 167.003906 99.875 169.769531 101.578125 171.476562 L 105.699219 175.597656 C 107.40625 177.300781 110.171875 177.3125 111.863281 175.621094 L 112.949219 174.53125 L 116.359375 177.941406 C 118.242188 179.824219 121.300781 179.835938 123.171875 177.964844 L 124.765625 176.371094 L 127.792969 179.398438 C 129.746094 181.351562 132.914062 181.363281 134.851562 179.425781 L 138.816406 175.460938 C 140.757812 173.519531 140.746094 170.351562 138.792969 168.398438 L 128.9375 158.542969 L 153.878906 133.601562 L 163.734375 143.457031 C 165.6875 145.410156 168.855469 145.421875 170.792969 143.484375 L 174.757812 139.519531 C 176.699219 137.578125 176.6875 134.410156 174.734375 132.457031 L 171.707031 129.429688 L 173.300781 127.835938 C 175.171875 125.964844 175.160156 122.910156 173.273438 121.023438 L 169.867188 117.617188 L 170.953125 116.527344 C 172.644531 114.835938 172.636719 112.070312 170.929688 110.367188 L 166.808594 106.246094 C 165.105469 104.539062 162.339844 104.53125 160.648438 106.222656 Z M 109.800781 173.558594 C 109.238281 174.121094 108.316406 174.117188 107.746094 173.550781 L 103.625 169.429688 C 103.054688 168.859375 103.054688 167.9375 103.617188 167.375 L 104.703125 166.289062 L 110.886719 172.472656 Z M 121.109375 175.90625 C 120.367188 176.648438 119.152344 176.644531 118.40625 175.894531 L 101.28125 158.769531 C 100.53125 158.023438 100.527344 156.808594 101.269531 156.066406 L 102.863281 154.472656 L 122.703125 174.3125 Z M 136.746094 170.445312 C 137.5625 171.261719 137.566406 172.585938 136.757812 173.398438 L 132.792969 177.363281 C 131.980469 178.175781 130.65625 178.167969 129.839844 177.351562 L 125.78125 173.292969 L 103.878906 151.394531 L 99.824219 147.335938 C 99.003906 146.519531 99 145.195312 99.8125 144.382812 L 103.777344 140.417969 C 104.589844 139.609375 105.914062 139.613281 106.730469 140.429688 Z M 126.875 156.484375 L 120.691406 150.300781 L 145.632812 125.359375 L 151.816406 131.542969 Z M 172.6875 134.503906 C 173.503906 135.320312 173.507812 136.648438 172.699219 137.457031 L 168.734375 141.421875 C 167.921875 142.234375 166.597656 142.230469 165.78125 141.414062 L 135.761719 111.394531 C 134.945312 110.578125 134.941406 109.253906 135.753906 108.441406 L 139.71875 104.476562 C 140.527344 103.667969 141.851562 103.671875 142.671875 104.488281 L 146.726562 108.546875 L 168.628906 130.449219 Z M 171.230469 123.070312 C 171.976562 123.820312 171.980469 125.035156 171.238281 125.777344 L 169.644531 127.371094 L 149.804688 107.53125 L 151.398438 105.9375 C 152.140625 105.195312 153.355469 105.199219 154.105469 105.945312 Z M 168.886719 112.414062 C 169.453125 112.980469 169.457031 113.902344 168.890625 114.46875 L 167.804688 115.554688 L 161.621094 109.371094 L 162.707031 108.285156 C 163.273438 107.71875 164.195312 107.722656 164.761719 108.289062 Z M 168.886719 112.414062 " fill-opacity="1" fill-rule="nonzero"/></g></g></g></g><g clip-path="url(#11aa024123)"><g clip-path="url(#1c02a3cbe1)"><g clip-path="url(#55314de9d1)"><g clip-path="url(#c47f1a9a9e)"><path fill="#000000" d="M 204.183594 116.378906 L 205.273438 117.464844 L 201.863281 120.875 C 199.980469 122.761719 199.96875 125.816406 201.839844 127.6875 L 203.433594 129.28125 L 200.40625 132.308594 C 198.453125 134.261719 198.441406 137.429688 200.378906 139.371094 L 204.34375 143.335938 C 206.285156 145.273438 209.453125 145.261719 211.40625 143.308594 L 221.261719 133.453125 L 246.203125 158.394531 L 236.347656 168.25 C 234.394531 170.203125 234.382812 173.371094 236.320312 175.3125 L 240.285156 179.277344 C 242.222656 181.214844 245.394531 181.203125 247.34375 179.25 L 250.375 176.222656 L 251.964844 177.816406 C 253.839844 179.6875 256.894531 179.675781 258.78125 177.792969 L 262.1875 174.382812 L 263.277344 175.46875 C 264.96875 177.164062 267.734375 177.152344 269.4375 175.449219 L 273.558594 171.324219 C 275.265625 169.621094 275.273438 166.855469 273.582031 165.164062 L 272.496094 164.078125 L 275.902344 160.667969 C 277.789062 158.785156 277.800781 155.726562 275.929688 153.855469 L 274.335938 152.261719 L 277.363281 149.234375 C 279.316406 147.28125 279.328125 144.113281 277.386719 142.171875 L 273.421875 138.207031 C 271.484375 136.269531 268.316406 136.28125 266.363281 138.234375 L 256.507812 148.089844 L 231.566406 123.148438 L 241.421875 113.292969 C 243.375 111.339844 243.386719 108.171875 241.445312 106.234375 L 237.480469 102.269531 C 235.542969 100.328125 232.375 100.339844 230.421875 102.292969 L 227.394531 105.320312 L 225.800781 103.726562 C 223.929688 101.855469 220.871094 101.867188 218.988281 103.75 L 215.578125 107.160156 L 214.492188 106.074219 C 212.800781 104.378906 210.035156 104.390625 208.328125 106.09375 L 204.207031 110.21875 C 202.503906 111.921875 202.492188 114.6875 204.183594 116.378906 Z M 271.519531 167.226562 C 272.085938 167.789062 272.082031 168.710938 271.515625 169.277344 L 267.390625 173.402344 C 266.824219 173.96875 265.902344 173.972656 265.335938 173.410156 L 264.25 172.320312 L 270.433594 166.136719 Z M 273.867188 155.914062 C 274.609375 156.660156 274.605469 157.875 273.859375 158.621094 L 256.734375 175.746094 C 255.984375 176.492188 254.769531 176.5 254.027344 175.753906 L 252.433594 174.160156 L 272.273438 154.320312 Z M 268.410156 140.28125 C 269.226562 139.464844 270.550781 139.457031 271.363281 140.269531 L 275.328125 144.234375 C 276.136719 145.046875 276.132812 146.371094 275.316406 147.1875 L 271.257812 151.246094 L 249.355469 173.144531 L 245.300781 177.203125 C 244.480469 178.019531 243.15625 178.023438 242.347656 177.214844 L 238.382812 173.25 C 237.570312 172.4375 237.574219 171.113281 238.390625 170.296875 Z M 254.445312 150.148438 L 248.261719 156.335938 L 223.320312 131.394531 L 229.503906 125.210938 Z M 232.46875 104.339844 C 233.285156 103.523438 234.609375 103.519531 235.421875 104.328125 L 239.386719 108.292969 C 240.195312 109.105469 240.191406 110.429688 239.375 111.246094 L 209.359375 141.261719 C 208.542969 142.078125 207.21875 142.085938 206.40625 141.273438 L 202.441406 137.308594 C 201.628906 136.496094 201.636719 135.171875 202.453125 134.355469 L 206.507812 130.296875 L 228.410156 108.398438 Z M 221.035156 105.796875 C 221.78125 105.050781 222.996094 105.046875 223.738281 105.789062 L 225.332031 107.382812 L 205.492188 127.222656 L 203.898438 125.628906 C 203.15625 124.882812 203.160156 123.671875 203.910156 122.921875 Z M 210.375 108.140625 C 210.945312 107.574219 211.867188 107.570312 212.429688 108.132812 L 213.515625 109.222656 L 207.332031 115.40625 L 206.246094 114.316406 C 205.683594 113.753906 205.683594 112.832031 206.253906 112.265625 Z M 210.375 108.140625 " fill-opacity="1" fill-rule="nonzero"/></g></g></g></g><g clip-path="url(#9944a2978e)"><g clip-path="url(#2b0630e27f)"><g clip-path="url(#87b01c57ce)"><g clip-path="url(#43fdb38f75)"><path fill="#000000" d="M 214.34375 268.773438 L 215.429688 267.6875 L 218.839844 271.097656 C 220.722656 272.980469 223.78125 272.992188 225.652344 271.121094 L 227.246094 269.527344 L 230.273438 272.554688 C 232.226562 274.507812 235.394531 274.519531 237.332031 272.578125 L 241.296875 268.613281 C 243.238281 266.675781 243.226562 263.507812 241.273438 261.554688 L 231.417969 251.699219 L 256.359375 226.757812 L 266.214844 236.613281 C 268.167969 238.566406 271.335938 238.578125 273.273438 236.636719 L 277.238281 232.671875 C 279.175781 230.734375 279.167969 227.566406 277.214844 225.613281 L 274.1875 222.585938 L 275.78125 220.992188 C 277.652344 219.121094 277.640625 216.0625 275.753906 214.179688 L 272.347656 210.769531 L 273.433594 209.683594 C 275.125 207.992188 275.117188 205.226562 273.410156 203.519531 L 269.289062 199.398438 C 267.585938 197.695312 264.820312 197.683594 263.128906 199.375 L 262.039062 200.464844 L 258.632812 197.054688 C 256.746094 195.171875 253.6875 195.160156 251.816406 197.03125 L 250.222656 198.625 L 247.195312 195.597656 C 245.242188 193.644531 242.074219 193.632812 240.136719 195.570312 L 236.171875 199.535156 C 234.230469 201.476562 234.242188 204.644531 236.195312 206.597656 L 246.050781 216.453125 L 221.109375 241.394531 L 211.253906 231.539062 C 209.300781 229.585938 206.132812 229.574219 204.195312 231.511719 L 200.230469 235.476562 C 198.292969 237.417969 198.304688 240.585938 200.257812 242.539062 L 203.285156 245.566406 L 201.691406 247.160156 C 199.820312 249.03125 199.828125 252.085938 201.714844 253.972656 L 205.125 257.378906 L 204.035156 258.46875 C 202.34375 260.160156 202.355469 262.925781 204.058594 264.628906 L 208.179688 268.753906 C 209.886719 270.457031 212.648438 270.464844 214.34375 268.773438 Z M 265.1875 201.4375 C 265.753906 200.875 266.675781 200.878906 267.242188 201.445312 L 271.363281 205.566406 C 271.933594 206.136719 271.9375 207.058594 271.371094 207.621094 L 270.285156 208.707031 L 264.101562 202.523438 Z M 253.878906 199.09375 C 254.621094 198.347656 255.835938 198.351562 256.585938 199.101562 L 273.707031 216.226562 C 274.457031 216.972656 274.460938 218.1875 273.71875 218.929688 L 272.125 220.523438 L 252.285156 200.6875 Z M 238.242188 204.550781 C 237.425781 203.734375 237.421875 202.410156 238.234375 201.597656 L 242.199219 197.632812 C 243.007812 196.820312 244.332031 196.828125 245.148438 197.644531 L 249.207031 201.703125 L 271.109375 223.601562 L 275.167969 227.660156 C 275.984375 228.476562 275.988281 229.800781 275.175781 230.613281 L 271.210938 234.578125 C 270.402344 235.386719 269.078125 235.382812 268.261719 234.566406 Z M 248.113281 218.511719 L 254.296875 224.695312 L 229.355469 249.636719 L 223.171875 243.453125 Z M 202.300781 240.492188 C 201.484375 239.675781 201.480469 238.347656 202.292969 237.539062 L 206.257812 233.574219 C 207.066406 232.761719 208.390625 232.765625 209.210938 233.585938 L 239.226562 263.601562 C 240.042969 264.417969 240.046875 265.742188 239.238281 266.554688 L 235.273438 270.519531 C 234.460938 271.328125 233.136719 271.324219 232.320312 270.507812 L 228.261719 266.449219 L 206.359375 244.550781 Z M 203.761719 251.925781 C 203.011719 251.175781 203.007812 249.960938 203.75 249.21875 L 205.34375 247.625 L 225.183594 267.464844 L 223.589844 269.058594 C 222.847656 269.800781 221.632812 269.796875 220.882812 269.050781 Z M 206.105469 262.582031 C 205.535156 262.015625 205.53125 261.09375 206.097656 260.527344 L 207.183594 259.441406 L 213.367188 265.625 L 212.28125 266.714844 C 211.714844 267.277344 210.796875 267.273438 210.226562 266.707031 Z M 206.105469 262.582031 " fill-opacity="1" fill-rule="nonzero"/></g></g></g></g><g clip-path="url(#835865c0c5)"><g clip-path="url(#29faa8ec1e)"><g clip-path="url(#2e63159d3e)"><g clip-path="url(#94229848b3)"><path fill="#000000" d="M 170.804688 258.617188 L 169.71875 257.53125 L 173.125 254.121094 C 175.011719 252.238281 175.023438 249.179688 173.148438 247.308594 L 171.558594 245.714844 L 174.585938 242.6875 C 176.539062 240.734375 176.546875 237.566406 174.609375 235.625 L 170.644531 231.660156 C 168.707031 229.722656 165.539062 229.734375 163.585938 231.6875 L 153.730469 241.542969 L 128.789062 216.601562 L 138.644531 206.746094 C 140.597656 204.792969 140.609375 201.625 138.667969 199.6875 L 134.703125 195.71875 C 132.765625 193.78125 129.597656 193.792969 127.644531 195.746094 L 124.617188 198.773438 L 123.023438 197.179688 C 121.152344 195.308594 118.09375 195.320312 116.207031 197.203125 L 112.800781 200.613281 L 111.714844 199.527344 C 110.019531 197.832031 107.257812 197.84375 105.550781 199.546875 L 101.429688 203.671875 C 99.726562 205.375 99.714844 208.140625 101.40625 209.832031 L 102.492188 210.917969 L 99.085938 214.328125 C 97.199219 216.210938 97.191406 219.269531 99.0625 221.140625 L 100.65625 222.734375 L 97.628906 225.761719 C 95.675781 227.714844 95.664062 230.882812 97.601562 232.824219 L 101.566406 236.789062 C 103.503906 238.726562 106.671875 238.714844 108.625 236.761719 L 118.480469 226.90625 L 143.421875 251.847656 L 133.566406 261.703125 C 131.613281 263.65625 131.601562 266.824219 133.542969 268.761719 L 137.507812 272.730469 C 139.445312 274.667969 142.613281 274.65625 144.566406 272.703125 L 147.59375 269.675781 L 149.1875 271.269531 C 151.058594 273.140625 154.117188 273.128906 156.003906 271.246094 L 159.410156 267.835938 L 160.5 268.921875 C 162.191406 270.617188 164.957031 270.605469 166.660156 268.902344 L 170.78125 264.777344 C 172.488281 263.074219 172.496094 260.308594 170.804688 258.617188 Z M 103.46875 207.769531 C 102.902344 207.207031 102.90625 206.285156 103.476562 205.71875 L 107.597656 201.59375 C 108.167969 201.027344 109.085938 201.023438 109.652344 201.585938 L 110.738281 202.675781 L 104.554688 208.859375 Z M 101.121094 219.082031 C 100.378906 218.335938 100.382812 217.121094 101.132812 216.375 L 118.253906 199.25 C 119.003906 198.503906 120.21875 198.496094 120.960938 199.242188 L 122.554688 200.835938 L 102.714844 220.675781 Z M 106.582031 234.714844 C 105.761719 235.53125 104.4375 235.539062 103.628906 234.726562 L 99.664062 230.761719 C 98.851562 229.949219 98.855469 228.625 99.671875 227.808594 L 103.730469 223.75 L 125.632812 201.851562 L 129.691406 197.792969 C 130.507812 196.976562 131.832031 196.972656 132.640625 197.78125 L 136.609375 201.746094 C 137.417969 202.558594 137.414062 203.882812 136.597656 204.699219 Z M 120.542969 224.847656 L 126.726562 218.664062 L 151.667969 243.601562 L 145.484375 249.785156 Z M 142.519531 270.65625 C 141.703125 271.472656 140.378906 271.476562 139.570312 270.667969 L 135.605469 266.703125 C 134.792969 265.890625 134.796875 264.566406 135.613281 263.75 L 165.632812 233.734375 C 166.449219 232.917969 167.773438 232.910156 168.582031 233.722656 L 172.546875 237.6875 C 173.359375 238.5 173.355469 239.824219 172.539062 240.640625 L 168.480469 244.699219 L 146.578125 266.597656 Z M 153.957031 269.199219 C 153.207031 269.945312 151.992188 269.953125 151.25 269.207031 L 149.65625 267.613281 L 169.496094 247.773438 L 171.089844 249.367188 C 171.832031 250.113281 171.828125 251.328125 171.078125 252.074219 Z M 164.613281 266.855469 C 164.046875 267.421875 163.125 267.425781 162.558594 266.863281 L 161.472656 265.773438 L 167.65625 259.589844 L 168.742188 260.679688 C 169.308594 261.242188 169.304688 262.164062 168.734375 262.730469 Z M 164.613281 266.855469 " fill-opacity="1" fill-rule="nonzero"/></g></g></g></g></svg>