<svg xmlns="http://www.w3.org/2000/svg" xmlns:xlink="http://www.w3.org/1999/xlink" width="500" zoomAndPan="magnify" viewBox="0 0 375 374.999991" height="500" preserveAspectRatio="xMidYMid meet" version="1.0"><defs><clipPath id="ac22063206"><path d="M 22 30 L 168 30 L 168 176 L 22 176 Z M 22 30 " clip-rule="nonzero"/></clipPath><clipPath id="62e0c0fc59"><path d="M 2.261719 128.679688 L 120.527344 10.417969 L 187.347656 77.238281 L 69.085938 195.503906 Z M 2.261719 128.679688 " clip-rule="nonzero"/></clipPath><clipPath id="c76cdf4862"><path d="M 2.261719 128.679688 L 120.527344 10.417969 L 187.347656 77.238281 L 69.085938 195.503906 Z M 2.261719 128.679688 " clip-rule="nonzero"/></clipPath><clipPath id="8ecd82a007"><path d="M 2.261719 128.679688 L 120.527344 10.417969 L 187.347656 77.238281 L 69.085938 195.503906 Z M 2.261719 128.679688 " clip-rule="nonzero"/></clipPath><clipPath id="76428d7754"><path d="M 207 30 L 353 30 L 353 176 L 207 176 Z M 207 30 " clip-rule="nonzero"/></clipPath><clipPath id="34be49d72d"><path d="M 305.863281 195.550781 L 187.601562 77.289062 L 254.421875 10.46875 L 372.6875 128.730469 Z M 305.863281 195.550781 " clip-rule="nonzero"/></clipPath><clipPath id="455b9964bf"><path d="M 305.863281 195.550781 L 187.601562 77.289062 L 254.421875 10.46875 L 372.6875 128.730469 Z M 305.863281 195.550781 " clip-rule="nonzero"/></clipPath><clipPath id="e5c35989df"><path d="M 305.863281 195.550781 L 187.601562 77.289062 L 254.421875 10.46875 L 372.6875 128.730469 Z M 305.863281 195.550781 " clip-rule="nonzero"/></clipPath><clipPath id="a25fef8ea9"><path d="M 207 199 L 353 199 L 353 345 L 207 345 Z M 207 199 " clip-rule="nonzero"/></clipPath><clipPath id="914d8c69ee"><path d="M 372.734375 246.3125 L 254.472656 364.578125 L 187.652344 297.753906 L 305.914062 179.492188 Z M 372.734375 246.3125 " clip-rule="nonzero"/></clipPath><clipPath id="eee23f7510"><path d="M 372.734375 246.3125 L 254.472656 364.578125 L 187.652344 297.753906 L 305.914062 179.492188 Z M 372.734375 246.3125 " clip-rule="nonzero"/></clipPath><clipPath id="0ead2ff27b"><path d="M 372.734375 246.3125 L 254.472656 364.578125 L 187.652344 297.753906 L 305.914062 179.492188 Z M 372.734375 246.3125 " clip-rule="nonzero"/></clipPath><clipPath id="54ed93c469"><path d="M 22 199 L 168 199 L 168 345 L 22 345 Z M 22 199 " clip-rule="nonzero"/></clipPath><clipPath id="5217b8b5f1"><path d="M 69.132812 179.441406 L 187.398438 297.703125 L 120.574219 364.527344 L 2.3125 246.261719 Z M 69.132812 179.441406 " clip-rule="nonzero"/></clipPath><clipPath id="2377ed0ec4"><path d="M 69.132812 179.441406 L 187.398438 297.703125 L 120.574219 364.527344 L 2.3125 246.261719 Z M 69.132812 179.441406 " clip-rule="nonzero"/></clipPath><clipPath id="1ba31744ff"><path d="M 69.132812 179.441406 L 187.398438 297.703125 L 120.574219 364.527344 L 2.3125 246.261719 Z M 69.132812 179.441406 " clip-rule="nonzero"/></clipPath></defs><g clip-path="url(#ac22063206)"><g clip-path="url(#62e0c0fc59)"><g clip-path="url(#c76cdf4862)"><g clip-path="url(#8ecd82a007)"><path fill="#000000" d="M 139.09375 40.117188 L 137.125 42.089844 L 130.988281 35.953125 C 127.59375 32.558594 122.070312 32.558594 118.679688 35.953125 L 115.789062 38.839844 L 110.339844 33.390625 C 106.824219 29.875 101.101562 29.875 97.585938 33.390625 L 90.394531 40.578125 C 86.878906 44.09375 86.882812 49.816406 90.398438 53.332031 L 108.136719 71.074219 L 62.917969 116.292969 L 45.179688 98.550781 C 41.664062 95.035156 35.9375 95.035156 32.421875 98.550781 L 25.234375 105.738281 C 21.71875 109.253906 21.71875 114.976562 25.234375 118.496094 L 30.6875 123.945312 L 27.796875 126.832031 C 24.402344 130.226562 24.402344 135.75 27.796875 139.144531 L 33.933594 145.277344 L 31.960938 147.25 C 28.894531 150.316406 28.894531 155.3125 31.960938 158.382812 L 39.382812 165.800781 C 42.453125 168.871094 47.449219 168.871094 50.515625 165.804688 L 52.484375 163.832031 L 58.621094 169.96875 C 62.015625 173.363281 67.539062 173.363281 70.933594 169.96875 L 73.820312 167.078125 L 79.269531 172.53125 C 82.785156 176.046875 88.511719 176.046875 92.027344 172.53125 L 99.214844 165.339844 C 102.730469 161.828125 102.730469 156.101562 99.214844 152.585938 L 81.472656 134.847656 L 126.691406 89.628906 L 144.433594 107.367188 C 147.949219 110.882812 153.671875 110.886719 157.1875 107.371094 L 164.375 100.179688 C 167.890625 96.664062 167.890625 90.941406 164.375 87.425781 L 158.925781 81.976562 L 161.8125 79.085938 C 165.207031 75.695312 165.207031 70.171875 161.8125 66.777344 L 155.675781 60.640625 L 157.648438 58.671875 C 160.714844 55.601562 160.714844 50.605469 157.648438 47.539062 L 150.226562 40.117188 C 147.160156 37.050781 142.164062 37.050781 139.09375 40.117188 Z M 46.804688 162.09375 C 45.78125 163.117188 44.117188 163.113281 43.09375 162.09375 L 35.671875 154.671875 C 34.648438 153.648438 34.648438 151.984375 35.671875 150.960938 L 37.644531 148.988281 L 48.777344 160.121094 Z M 67.222656 166.257812 C 65.875 167.605469 63.679688 167.605469 62.332031 166.257812 L 31.507812 135.433594 C 30.160156 134.085938 30.160156 131.890625 31.507812 130.542969 L 34.394531 127.65625 L 70.109375 163.371094 Z M 95.503906 156.296875 C 96.972656 157.769531 96.972656 160.160156 95.503906 161.632812 L 88.316406 168.820312 C 86.84375 170.289062 84.453125 170.289062 82.980469 168.820312 L 28.945312 114.785156 C 27.476562 113.3125 27.476562 110.921875 28.945312 109.449219 L 36.132812 102.261719 C 37.605469 100.792969 39.996094 100.792969 41.46875 102.261719 Z M 77.761719 131.136719 L 66.628906 120.003906 L 111.847656 74.785156 L 122.980469 85.917969 Z M 160.664062 91.136719 C 162.132812 92.605469 162.136719 95 160.664062 96.46875 L 153.476562 103.660156 C 152.007812 105.128906 149.613281 105.128906 148.140625 103.660156 L 94.105469 49.625 C 92.636719 48.152344 92.636719 45.757812 94.105469 44.289062 L 101.296875 37.101562 C 102.765625 35.628906 105.160156 35.628906 106.628906 37.101562 Z M 158.101562 70.488281 C 159.449219 71.835938 159.449219 74.027344 158.101562 75.375 L 155.214844 78.265625 L 119.5 42.550781 L 122.390625 39.660156 C 123.738281 38.316406 125.929688 38.316406 127.277344 39.664062 Z M 153.9375 51.25 C 154.960938 52.273438 154.960938 53.9375 153.9375 54.960938 L 151.964844 56.929688 L 140.835938 45.800781 L 142.804688 43.828125 C 143.828125 42.804688 145.492188 42.804688 146.515625 43.828125 Z M 153.9375 51.25 " fill-opacity="1" fill-rule="nonzero"/></g></g></g></g><g clip-path="url(#76428d7754)"><g clip-path="url(#34be49d72d)"><g clip-path="url(#455b9964bf)"><g clip-path="url(#e5c35989df)"><path fill="#000000" d="M 217.300781 58.71875 L 219.273438 60.691406 L 213.136719 66.828125 C 209.742188 70.21875 209.742188 75.746094 213.136719 79.136719 L 216.023438 82.027344 L 210.574219 87.476562 C 207.058594 90.992188 207.058594 96.714844 210.574219 100.230469 L 217.761719 107.417969 C 221.277344 110.933594 227 110.933594 230.515625 107.417969 L 248.257812 89.675781 L 293.476562 134.894531 L 275.734375 152.636719 C 272.21875 156.152344 272.21875 161.875 275.734375 165.390625 L 282.921875 172.578125 C 286.4375 176.09375 292.164062 176.09375 295.679688 172.578125 L 301.128906 167.128906 L 304.015625 170.019531 C 307.410156 173.410156 312.933594 173.410156 316.328125 170.019531 L 322.460938 163.882812 L 324.433594 165.851562 C 327.5 168.921875 332.496094 168.921875 335.566406 165.851562 L 342.988281 158.429688 C 346.054688 155.363281 346.054688 150.367188 342.988281 147.300781 L 341.015625 145.328125 L 347.152344 139.191406 C 350.546875 135.800781 350.546875 130.277344 347.152344 126.882812 L 344.261719 123.992188 L 349.714844 118.542969 C 353.230469 115.027344 353.230469 109.304688 349.714844 105.789062 L 342.527344 98.601562 C 339.011719 95.085938 333.285156 95.085938 329.769531 98.601562 L 312.03125 116.34375 L 266.8125 71.125 L 284.550781 53.382812 C 288.066406 49.867188 288.070312 44.144531 284.554688 40.628906 L 277.363281 33.441406 C 273.847656 29.925781 268.125 29.925781 264.609375 33.441406 L 259.160156 38.890625 L 256.269531 36 C 252.878906 32.609375 247.355469 32.609375 243.960938 36 L 237.824219 42.136719 L 235.855469 40.167969 C 232.785156 37.097656 227.789062 37.097656 224.722656 40.167969 L 217.300781 47.589844 C 214.234375 50.65625 214.234375 55.652344 217.300781 58.71875 Z M 339.277344 151.011719 C 340.300781 152.035156 340.300781 153.699219 339.277344 154.722656 L 331.855469 162.140625 C 330.832031 163.164062 329.167969 163.164062 328.144531 162.140625 L 326.171875 160.171875 L 337.304688 149.039062 Z M 343.441406 130.59375 C 344.789062 131.941406 344.789062 134.136719 343.441406 135.480469 L 312.617188 166.308594 C 311.269531 167.65625 309.074219 167.65625 307.726562 166.308594 L 304.839844 163.417969 L 340.554688 127.703125 Z M 333.480469 102.3125 C 334.953125 100.839844 337.34375 100.839844 338.816406 102.3125 L 346.003906 109.5 C 347.472656 110.96875 347.472656 113.363281 346.003906 114.832031 L 338.699219 122.140625 L 299.273438 161.5625 L 291.96875 168.871094 C 290.496094 170.339844 288.105469 170.339844 286.632812 168.871094 L 279.445312 161.679688 C 277.976562 160.210938 277.976562 157.816406 279.445312 156.347656 Z M 308.320312 120.054688 L 297.1875 131.183594 L 251.96875 85.964844 L 263.101562 74.835938 Z M 268.320312 37.152344 C 269.789062 35.679688 272.183594 35.679688 273.652344 37.152344 L 280.84375 44.339844 C 282.3125 45.808594 282.3125 48.203125 280.84375 49.671875 L 226.808594 103.707031 C 225.335938 105.179688 222.941406 105.179688 221.472656 103.707031 L 214.285156 96.519531 C 212.8125 95.050781 212.8125 92.65625 214.285156 91.1875 Z M 247.671875 39.710938 C 249.019531 38.363281 251.210938 38.363281 252.558594 39.710938 L 255.449219 42.601562 L 219.734375 78.316406 L 216.847656 75.425781 C 215.5 74.078125 215.5 71.886719 216.847656 70.539062 Z M 228.433594 43.878906 C 229.457031 42.855469 231.121094 42.855469 232.144531 43.878906 L 234.113281 45.847656 L 222.984375 56.980469 L 221.011719 55.007812 C 219.988281 53.988281 219.988281 52.320312 221.011719 51.300781 Z M 228.433594 43.878906 " fill-opacity="1" fill-rule="nonzero"/></g></g></g></g><g clip-path="url(#a25fef8ea9)"><g clip-path="url(#914d8c69ee)"><g clip-path="url(#eee23f7510)"><g clip-path="url(#0ead2ff27b)"><path fill="#000000" d="M 235.902344 334.875 L 237.875 332.90625 L 244.011719 339.042969 C 247.402344 342.433594 252.929688 342.433594 256.320312 339.042969 L 259.210938 336.152344 L 264.660156 341.601562 C 268.175781 345.117188 273.898438 345.121094 277.414062 341.605469 L 284.601562 334.414062 C 288.117188 330.898438 288.117188 325.175781 284.601562 321.660156 L 266.859375 303.917969 L 312.078125 258.699219 L 329.820312 276.441406 C 333.335938 279.957031 339.058594 279.957031 342.574219 276.441406 L 349.765625 269.253906 C 353.277344 265.738281 353.277344 260.015625 349.761719 256.5 L 344.3125 251.050781 L 347.203125 248.160156 C 350.59375 244.769531 350.59375 239.242188 347.203125 235.851562 L 341.066406 229.714844 L 343.035156 227.742188 C 346.105469 224.675781 346.105469 219.679688 343.035156 216.613281 L 335.613281 209.191406 C 332.546875 206.125 327.550781 206.121094 324.484375 209.191406 L 322.511719 211.160156 L 316.375 205.027344 C 312.984375 201.632812 307.460938 201.632812 304.066406 205.023438 L 301.175781 207.914062 L 295.726562 202.464844 C 292.210938 198.949219 286.488281 198.949219 282.972656 202.464844 L 275.785156 209.652344 C 272.269531 213.167969 272.269531 218.890625 275.785156 222.40625 L 293.527344 240.148438 L 248.308594 285.367188 L 230.566406 267.625 C 227.050781 264.109375 221.328125 264.109375 217.8125 267.625 L 210.625 274.8125 C 207.109375 278.328125 207.109375 284.050781 210.625 287.566406 L 216.074219 293.019531 L 213.183594 295.90625 C 209.792969 299.300781 209.792969 304.824219 213.183594 308.214844 L 219.320312 314.351562 L 217.351562 316.324219 C 214.28125 319.390625 214.28125 324.386719 217.351562 327.453125 L 224.773438 334.875 C 227.839844 337.945312 232.835938 337.945312 235.902344 334.875 Z M 328.195312 212.902344 C 329.21875 211.878906 330.882812 211.878906 331.90625 212.902344 L 339.324219 220.324219 C 340.347656 221.34375 340.347656 223.011719 339.324219 224.03125 L 337.355469 226.003906 L 326.222656 214.871094 Z M 307.777344 208.734375 C 309.125 207.386719 311.320312 207.386719 312.664062 208.734375 L 343.492188 239.5625 C 344.839844 240.910156 344.839844 243.101562 343.492188 244.449219 L 340.601562 247.339844 L 304.886719 211.625 Z M 279.496094 218.695312 C 278.023438 217.226562 278.023438 214.832031 279.496094 213.363281 L 286.683594 206.175781 C 288.152344 204.703125 290.546875 204.703125 292.015625 206.175781 L 299.324219 213.480469 L 338.746094 252.90625 L 346.054688 260.210938 C 347.523438 261.679688 347.523438 264.074219 346.054688 265.542969 L 338.863281 272.730469 C 337.394531 274.203125 335 274.203125 333.53125 272.730469 Z M 297.238281 243.859375 L 308.367188 254.992188 L 263.148438 300.207031 L 252.019531 289.078125 Z M 214.335938 283.859375 C 212.863281 282.386719 212.863281 279.992188 214.335938 278.523438 L 221.523438 271.335938 C 222.992188 269.863281 225.386719 269.863281 226.855469 271.335938 L 280.890625 325.371094 C 282.363281 326.839844 282.363281 329.234375 280.890625 330.703125 L 273.703125 337.894531 C 272.234375 339.363281 269.839844 339.363281 268.371094 337.894531 L 261.066406 330.585938 L 221.640625 291.164062 Z M 216.894531 304.507812 C 215.546875 303.160156 215.546875 300.964844 216.894531 299.617188 L 219.785156 296.726562 L 255.5 332.441406 L 252.609375 335.332031 C 251.261719 336.679688 249.070312 336.679688 247.722656 335.332031 Z M 221.0625 323.746094 C 220.039062 322.722656 220.039062 321.058594 221.0625 320.035156 L 223.03125 318.0625 L 234.164062 329.195312 L 232.191406 331.167969 C 231.171875 332.1875 229.503906 332.1875 228.484375 331.164062 Z M 221.0625 323.746094 " fill-opacity="1" fill-rule="nonzero"/></g></g></g></g><g clip-path="url(#54ed93c469)"><g clip-path="url(#5217b8b5f1)"><g clip-path="url(#2377ed0ec4)"><g clip-path="url(#1ba31744ff)"><path fill="#000000" d="M 157.699219 316.273438 L 155.726562 314.304688 L 161.863281 308.167969 C 165.257812 304.773438 165.257812 299.25 161.863281 295.855469 L 158.972656 292.96875 L 164.425781 287.519531 C 167.941406 284.003906 167.941406 278.277344 164.425781 274.761719 L 157.238281 267.574219 C 153.722656 264.058594 147.996094 264.058594 144.480469 267.574219 L 126.742188 285.316406 L 81.523438 240.097656 L 99.261719 222.355469 C 102.777344 218.839844 102.78125 213.117188 99.265625 209.601562 L 92.074219 202.414062 C 88.558594 198.898438 82.835938 198.898438 79.320312 202.414062 L 73.871094 207.863281 L 70.980469 204.976562 C 67.589844 201.582031 62.066406 201.582031 58.671875 204.976562 L 52.535156 211.113281 L 50.566406 209.140625 C 47.496094 206.074219 42.5 206.074219 39.433594 209.140625 L 32.011719 216.5625 C 28.945312 219.632812 28.945312 224.625 32.011719 227.695312 L 33.984375 229.664062 L 27.847656 235.800781 C 24.453125 239.195312 24.453125 244.71875 27.847656 248.109375 L 30.734375 251 L 25.285156 256.449219 C 21.769531 259.964844 21.769531 265.6875 25.285156 269.203125 L 32.472656 276.394531 C 35.988281 279.910156 41.710938 279.910156 45.226562 276.390625 L 62.96875 258.652344 L 108.1875 303.871094 L 90.445312 321.609375 C 86.929688 325.125 86.929688 330.851562 90.445312 334.367188 L 97.632812 341.554688 C 101.148438 345.070312 106.875 345.070312 110.390625 341.554688 L 115.839844 336.101562 L 118.726562 338.992188 C 122.121094 342.386719 127.644531 342.386719 131.039062 338.992188 L 137.175781 332.855469 L 139.144531 334.828125 C 142.210938 337.894531 147.207031 337.894531 150.277344 334.828125 L 157.699219 327.40625 C 160.765625 324.335938 160.765625 319.34375 157.699219 316.273438 Z M 35.722656 223.984375 C 34.699219 222.960938 34.699219 221.296875 35.722656 220.273438 L 43.144531 212.851562 C 44.167969 211.828125 45.832031 211.828125 46.855469 212.851562 L 48.824219 214.824219 L 37.695312 225.953125 Z M 31.558594 244.398438 C 30.210938 243.054688 30.210938 240.859375 31.558594 239.511719 L 62.382812 208.6875 C 63.730469 207.339844 65.925781 207.339844 67.269531 208.6875 L 70.160156 211.574219 L 34.445312 247.289062 Z M 41.519531 272.683594 C 40.046875 274.152344 37.652344 274.152344 36.183594 272.683594 L 28.996094 265.492188 C 27.523438 264.023438 27.527344 261.628906 28.996094 260.160156 L 83.03125 206.125 C 84.5 204.65625 86.894531 204.65625 88.363281 206.125 L 95.554688 213.3125 C 97.023438 214.785156 97.023438 217.175781 95.554688 218.648438 Z M 66.679688 254.941406 L 77.8125 243.808594 L 123.03125 289.027344 L 111.898438 300.160156 Z M 106.679688 337.84375 C 105.207031 339.3125 102.816406 339.3125 101.34375 337.84375 L 94.15625 330.65625 C 92.6875 329.183594 92.6875 326.792969 94.15625 325.320312 L 148.191406 271.285156 C 149.664062 269.816406 152.054688 269.816406 153.527344 271.285156 L 160.714844 278.472656 C 162.183594 279.945312 162.183594 282.335938 160.714844 283.808594 Z M 127.328125 335.28125 C 125.980469 336.628906 123.785156 336.628906 122.4375 335.28125 L 119.550781 332.394531 L 155.265625 296.679688 L 158.152344 299.566406 C 159.5 300.914062 159.5 303.109375 158.152344 304.457031 Z M 146.566406 331.117188 C 145.542969 332.140625 143.878906 332.140625 142.855469 331.117188 L 140.882812 329.144531 L 152.015625 318.011719 L 153.988281 319.984375 C 155.011719 321.007812 155.011719 322.671875 153.988281 323.695312 Z M 146.566406 331.117188 " fill-opacity="1" fill-rule="nonzero"/></g></g></g></g></svg>